<svg width="76" height="36" viewBox="0 0 76 36" fill="none" xmlns="http://www.w3.org/2000/svg">
<path d="M48 1.33325L58 1.33325C60.1887 1.33325 62.356 1.76435 64.3781 2.60193C66.4002 3.4395 68.2375 4.66716 69.7851 6.21481C71.3328 7.76245 72.5604 9.59977 73.398 11.6219C74.2356 13.644 74.6667 15.8112 74.6667 17.9999C74.6667 20.1886 74.2356 22.3559 73.398 24.378C72.5604 26.4001 71.3328 28.2374 69.7851 29.785C68.2375 31.3327 66.4002 32.5603 64.3781 33.3979C62.356 34.2355 60.1887 34.6666 58 34.6666H48M28 34.6666H18C15.8113 34.6666 13.644 34.2355 11.6219 33.3979C9.59985 32.5603 7.76253 31.3327 6.21489 29.785C3.08928 26.6594 1.33334 22.4202 1.33334 17.9999C1.33334 13.5796 3.08928 9.34041 6.21489 6.21481C9.3405 3.0892 13.5797 1.33325 18 1.33325L28 1.33325" stroke="#141414" stroke-width="2" stroke-linecap="round" stroke-linejoin="round"/>
</svg>
